<svg width="225" height="50" viewBox="0 0 225 50" fill="none" xmlns="http://www.w3.org/2000/svg">
<path d="M225 0H0V50H225V0Z" fill="white"/>
<path d="M224.5 0.5H0.5V49.5H224.5V0.5Z" stroke="#A4A4A4" stroke-linejoin="round"/>
<path d="M47.61 29.334C47.6567 29.334 47.6963 29.3503 47.729 29.383L48.009 29.684C47.8037 29.9033 47.5797 30.1017 47.337 30.279C47.099 30.4517 46.8353 30.601 46.546 30.727C46.2613 30.8483 45.9463 30.9417 45.601 31.007C45.2603 31.077 44.8847 31.112 44.474 31.112C43.788 31.112 43.158 30.993 42.584 30.755C42.0147 30.5123 41.5247 30.1717 41.114 29.733C40.7033 29.2897 40.3837 28.7553 40.155 28.13C39.931 27.5047 39.819 26.8093 39.819 26.044C39.819 25.2927 39.9357 24.6067 40.169 23.986C40.4023 23.3653 40.729 22.8333 41.149 22.39C41.569 21.942 42.073 21.5967 42.661 21.354C43.249 21.1067 43.8977 20.983 44.607 20.983C45.2837 20.983 45.8833 21.088 46.406 21.298C46.9287 21.508 47.4047 21.8043 47.834 22.187L47.617 22.502C47.5797 22.558 47.5213 22.586 47.442 22.586C47.386 22.586 47.295 22.5347 47.169 22.432C47.043 22.3293 46.868 22.2173 46.644 22.096C46.42 21.97 46.14 21.8557 45.804 21.753C45.4727 21.6503 45.0737 21.599 44.607 21.599C44.0097 21.599 43.4613 21.7017 42.962 21.907C42.4673 22.1123 42.0403 22.4063 41.681 22.789C41.3263 23.1717 41.0487 23.6383 40.848 24.189C40.6473 24.7397 40.547 25.358 40.547 26.044C40.547 26.744 40.6473 27.3693 40.848 27.92C41.0533 28.4707 41.3333 28.9373 41.688 29.32C42.0427 29.698 42.4603 29.9897 42.941 30.195C43.4263 30.3957 43.949 30.496 44.509 30.496C44.8637 30.496 45.1787 30.4727 45.454 30.426C45.734 30.3793 45.9907 30.3093 46.224 30.216C46.4573 30.1227 46.6743 30.0083 46.875 29.873C47.0757 29.7377 47.274 29.579 47.47 29.397C47.4933 29.3783 47.5167 29.3643 47.54 29.355C47.5633 29.341 47.5867 29.334 47.61 29.334ZM58.5589 26.044C58.5589 26.8093 58.4445 27.5047 58.2159 28.13C57.9872 28.7507 57.6652 29.2827 57.2499 29.726C56.8345 30.1647 56.3352 30.5053 55.7519 30.748C55.1732 30.986 54.5339 31.105 53.8339 31.105C53.1339 31.105 52.4945 30.986 51.9159 30.748C51.3372 30.5053 50.8402 30.1647 50.4249 29.726C50.0095 29.2827 49.6875 28.7507 49.4589 28.13C49.2302 27.5047 49.1159 26.8093 49.1159 26.044C49.1159 25.2833 49.2302 24.5927 49.4589 23.972C49.6875 23.3467 50.0095 22.8147 50.4249 22.376C50.8402 21.9327 51.3372 21.5897 51.9159 21.347C52.4945 21.1043 53.1339 20.983 53.8339 20.983C54.5339 20.983 55.1732 21.1043 55.7519 21.347C56.3352 21.585 56.8345 21.9257 57.2499 22.369C57.6652 22.8123 57.9872 23.3467 58.2159 23.972C58.4445 24.5927 58.5589 25.2833 58.5589 26.044ZM57.8169 26.044C57.8169 25.3533 57.7212 24.7327 57.5299 24.182C57.3385 23.6313 57.0679 23.1647 56.7179 22.782C56.3679 22.3993 55.9479 22.1077 55.4579 21.907C54.9679 21.7017 54.4265 21.599 53.8339 21.599C53.2459 21.599 52.7069 21.7017 52.2169 21.907C51.7269 22.1077 51.3045 22.3993 50.9499 22.782C50.5999 23.1647 50.3269 23.6313 50.1309 24.182C49.9395 24.7327 49.8439 25.3533 49.8439 26.044C49.8439 26.7393 49.9395 27.3623 50.1309 27.913C50.3269 28.459 50.5999 28.9233 50.9499 29.306C51.3045 29.6887 51.7269 29.9803 52.2169 30.181C52.7069 30.3817 53.2459 30.482 53.8339 30.482C54.4265 30.482 54.9679 30.3817 55.4579 30.181C55.9479 29.9803 56.3679 29.6887 56.7179 29.306C57.0679 28.9233 57.3385 28.459 57.5299 27.913C57.7212 27.3623 57.8169 26.7393 57.8169 26.044ZM68.4781 21.095V31H68.1421C68.0814 31 68.0301 30.9907 67.9881 30.972C67.9508 30.9487 67.9134 30.9113 67.8761 30.86L61.4431 22.264C61.4571 22.404 61.4641 22.537 61.4641 22.663V31H60.8341V21.095H61.1911C61.2564 21.095 61.3054 21.1043 61.3381 21.123C61.3754 21.137 61.4151 21.172 61.4571 21.228L67.8761 29.803C67.8621 29.663 67.8551 29.53 67.8551 29.404V21.095H68.4781ZM77.8425 21.704H74.3635V31H73.6425V21.704H70.1425V21.095H77.8425V21.704ZM80.2309 31H79.5099V21.095H80.2309V31ZM90.8043 21.095V31H90.4683C90.4076 31 90.3563 30.9907 90.3143 30.972C90.2769 30.9487 90.2396 30.9113 90.2023 30.86L83.7693 22.264C83.7833 22.404 83.7903 22.537 83.7903 22.663V31H83.1603V21.095H83.5173C83.5826 21.095 83.6316 21.1043 83.6643 21.123C83.7016 21.137 83.7413 21.172 83.7833 21.228L90.2023 29.803C90.1883 29.663 90.1813 29.53 90.1813 29.404V21.095H90.8043ZM97.3546 30.489C97.8306 30.489 98.2553 30.4073 98.6286 30.244C99.0066 30.076 99.3263 29.845 99.5876 29.551C99.849 29.257 100.047 28.9117 100.183 28.515C100.323 28.1137 100.393 27.682 100.393 27.22V21.095H101.107V27.22C101.107 27.766 101.02 28.277 100.848 28.753C100.675 29.2243 100.425 29.6373 100.099 29.992C99.7766 30.342 99.3823 30.6173 98.9156 30.818C98.4536 31.0187 97.9333 31.119 97.3546 31.119C96.776 31.119 96.2533 31.0187 95.7866 30.818C95.3246 30.6173 94.9303 30.342 94.6036 29.992C94.2816 29.6373 94.0343 29.2243 93.8616 28.753C93.689 28.277 93.6026 27.766 93.6026 27.22V21.095H94.3236V27.213C94.3236 27.675 94.3913 28.1067 94.5266 28.508C94.6666 28.9047 94.865 29.25 95.1216 29.544C95.383 29.838 95.7003 30.069 96.0736 30.237C96.4516 30.405 96.8786 30.489 97.3546 30.489ZM109.851 30.405L109.837 31H103.901V21.095H109.837V21.69H104.622V25.694H108.962V26.275H104.622V30.405H109.851ZM120.631 22.299C120.589 22.3783 120.529 22.418 120.449 22.418C120.389 22.418 120.309 22.376 120.211 22.292C120.118 22.2033 119.99 22.1077 119.826 22.005C119.663 21.8977 119.458 21.7997 119.21 21.711C118.968 21.6223 118.667 21.578 118.307 21.578C117.948 21.578 117.631 21.6293 117.355 21.732C117.085 21.8347 116.856 21.9747 116.669 22.152C116.487 22.3293 116.347 22.5347 116.249 22.768C116.156 23.0013 116.109 23.2463 116.109 23.503C116.109 23.839 116.179 24.1167 116.319 24.336C116.464 24.5553 116.653 24.742 116.886 24.896C117.12 25.05 117.383 25.1807 117.677 25.288C117.976 25.3907 118.282 25.4933 118.594 25.596C118.907 25.6987 119.21 25.813 119.504 25.939C119.803 26.0603 120.069 26.2143 120.302 26.401C120.536 26.5877 120.722 26.8187 120.862 27.094C121.007 27.3647 121.079 27.703 121.079 28.109C121.079 28.5243 121.007 28.9163 120.862 29.285C120.722 29.649 120.517 29.9663 120.246 30.237C119.976 30.5077 119.644 30.7223 119.252 30.881C118.86 31.035 118.412 31.112 117.908 31.112C117.255 31.112 116.693 30.9977 116.221 30.769C115.75 30.5357 115.337 30.2183 114.982 29.817L115.178 29.509C115.234 29.439 115.3 29.404 115.374 29.404C115.416 29.404 115.47 29.432 115.535 29.488C115.601 29.544 115.68 29.614 115.773 29.698C115.867 29.7773 115.979 29.866 116.109 29.964C116.24 30.0573 116.392 30.146 116.564 30.23C116.737 30.3093 116.935 30.377 117.159 30.433C117.383 30.489 117.638 30.517 117.922 30.517C118.314 30.517 118.664 30.4587 118.972 30.342C119.28 30.2207 119.539 30.0573 119.749 29.852C119.964 29.6467 120.127 29.404 120.239 29.124C120.351 28.8393 120.407 28.536 120.407 28.214C120.407 27.864 120.335 27.577 120.19 27.353C120.05 27.1243 119.864 26.9353 119.63 26.786C119.397 26.632 119.131 26.5037 118.832 26.401C118.538 26.2983 118.235 26.198 117.922 26.1C117.61 26.002 117.304 25.8923 117.005 25.771C116.711 25.6497 116.448 25.4957 116.214 25.309C115.981 25.1177 115.792 24.882 115.647 24.602C115.507 24.3173 115.437 23.9627 115.437 23.538C115.437 23.2067 115.5 22.887 115.626 22.579C115.752 22.271 115.937 22.0003 116.179 21.767C116.422 21.529 116.721 21.34 117.075 21.2C117.435 21.0553 117.843 20.983 118.3 20.983C118.814 20.983 119.273 21.0647 119.679 21.228C120.09 21.3913 120.463 21.641 120.799 21.977L120.631 22.299ZM130.959 21.095V31H130.238V26.254H124.036V31H123.315V21.095H124.036V25.715H130.238V21.095H130.959ZM142.682 26.044C142.682 26.8093 142.568 27.5047 142.339 28.13C142.11 28.7507 141.788 29.2827 141.373 29.726C140.958 30.1647 140.458 30.5053 139.875 30.748C139.296 30.986 138.657 31.105 137.957 31.105C137.257 31.105 136.618 30.986 136.039 30.748C135.46 30.5053 134.963 30.1647 134.548 29.726C134.133 29.2827 133.811 28.7507 133.582 28.13C133.353 27.5047 133.239 26.8093 133.239 26.044C133.239 25.2833 133.353 24.5927 133.582 23.972C133.811 23.3467 134.133 22.8147 134.548 22.376C134.963 21.9327 135.46 21.5897 136.039 21.347C136.618 21.1043 137.257 20.983 137.957 20.983C138.657 20.983 139.296 21.1043 139.875 21.347C140.458 21.585 140.958 21.9257 141.373 22.369C141.788 22.8123 142.11 23.3467 142.339 23.972C142.568 24.5927 142.682 25.2833 142.682 26.044ZM141.94 26.044C141.94 25.3533 141.844 24.7327 141.653 24.182C141.462 23.6313 141.191 23.1647 140.841 22.782C140.491 22.3993 140.071 22.1077 139.581 21.907C139.091 21.7017 138.55 21.599 137.957 21.599C137.369 21.599 136.83 21.7017 136.34 21.907C135.85 22.1077 135.428 22.3993 135.073 22.782C134.723 23.1647 134.45 23.6313 134.254 24.182C134.063 24.7327 133.967 25.3533 133.967 26.044C133.967 26.7393 134.063 27.3623 134.254 27.913C134.45 28.459 134.723 28.9233 135.073 29.306C135.428 29.6887 135.85 29.9803 136.34 30.181C136.83 30.3817 137.369 30.482 137.957 30.482C138.55 30.482 139.091 30.3817 139.581 30.181C140.071 29.9803 140.491 29.6887 140.841 29.306C141.191 28.9233 141.462 28.459 141.653 27.913C141.844 27.3623 141.94 26.7393 141.94 26.044ZM147.519 26.436C147.953 26.436 148.343 26.3753 148.688 26.254C149.033 26.1327 149.325 25.9647 149.563 25.75C149.806 25.5353 149.99 25.2833 150.116 24.994C150.247 24.7 150.312 24.3803 150.312 24.035C150.312 23.2743 150.079 22.6887 149.612 22.278C149.145 21.8673 148.448 21.662 147.519 21.662H145.678V26.436H147.519ZM147.519 21.095C148.681 21.095 149.556 21.3493 150.144 21.858C150.737 22.3667 151.033 23.0923 151.033 24.035C151.033 24.469 150.951 24.868 150.788 25.232C150.625 25.596 150.391 25.911 150.088 26.177C149.785 26.4383 149.416 26.6437 148.982 26.793C148.548 26.9377 148.06 27.01 147.519 27.01H145.678V31H144.957V21.095H147.519ZM155.613 26.436C156.047 26.436 156.437 26.3753 156.782 26.254C157.127 26.1327 157.419 25.9647 157.657 25.75C157.9 25.5353 158.084 25.2833 158.21 24.994C158.341 24.7 158.406 24.3803 158.406 24.035C158.406 23.2743 158.173 22.6887 157.706 22.278C157.239 21.8673 156.542 21.662 155.613 21.662H153.772V26.436H155.613ZM155.613 21.095C156.775 21.095 157.65 21.3493 158.238 21.858C158.831 22.3667 159.127 23.0923 159.127 24.035C159.127 24.469 159.045 24.868 158.882 25.232C158.719 25.596 158.485 25.911 158.182 26.177C157.879 26.4383 157.51 26.6437 157.076 26.793C156.642 26.9377 156.154 27.01 155.613 27.01H153.772V31H153.051V21.095H155.613ZM161.866 31H161.145V21.095H161.866V31ZM172.439 21.095V31H172.103C172.042 31 171.991 30.9907 171.949 30.972C171.912 30.9487 171.874 30.9113 171.837 30.86L165.404 22.264C165.418 22.404 165.425 22.537 165.425 22.663V31H164.795V21.095H165.152C165.217 21.095 165.266 21.1043 165.299 21.123C165.336 21.137 165.376 21.172 165.418 21.228L171.837 29.803C171.823 29.663 171.816 29.53 171.816 29.404V21.095H172.439ZM183.273 26.506V30.027C182.779 30.377 182.251 30.6453 181.691 30.832C181.131 31.0187 180.501 31.112 179.801 31.112C179.017 31.112 178.313 30.993 177.687 30.755C177.062 30.5123 176.528 30.1717 176.084 29.733C175.646 29.2897 175.307 28.7553 175.069 28.13C174.836 27.5047 174.719 26.8093 174.719 26.044C174.719 25.2787 174.834 24.5857 175.062 23.965C175.296 23.3397 175.627 22.8077 176.056 22.369C176.49 21.9257 177.013 21.585 177.624 21.347C178.236 21.1043 178.924 20.983 179.689 20.983C180.067 20.983 180.415 21.0087 180.732 21.06C181.054 21.1113 181.353 21.1883 181.628 21.291C181.904 21.389 182.16 21.5127 182.398 21.662C182.636 21.8067 182.865 21.9747 183.084 22.166L182.888 22.474C182.823 22.586 182.725 22.6117 182.594 22.551C182.524 22.523 182.424 22.4577 182.293 22.355C182.163 22.2523 181.983 22.145 181.754 22.033C181.526 21.921 181.241 21.8207 180.9 21.732C180.564 21.6433 180.154 21.599 179.668 21.599C179.024 21.599 178.441 21.7017 177.918 21.907C177.4 22.1123 176.957 22.4063 176.588 22.789C176.224 23.1717 175.942 23.6383 175.741 24.189C175.545 24.7397 175.447 25.358 175.447 26.044C175.447 26.7393 175.545 27.3647 175.741 27.92C175.942 28.4753 176.229 28.9467 176.602 29.334C176.98 29.7213 177.438 30.0177 177.974 30.223C178.511 30.4283 179.115 30.531 179.787 30.531C180.081 30.531 180.352 30.5123 180.599 30.475C180.851 30.4377 181.089 30.3863 181.313 30.321C181.542 30.251 181.761 30.167 181.971 30.069C182.186 29.9663 182.403 29.852 182.622 29.726V27.059H180.725C180.674 27.059 180.63 27.0427 180.592 27.01C180.56 26.9773 180.543 26.94 180.543 26.898V26.506H183.273Z" fill="black"/>
</svg>
