<svg width="235" height="50" viewBox="0 0 235 50" fill="none" xmlns="http://www.w3.org/2000/svg">
<path d="M235 0H0V50H235V0Z" fill="white"/>
<path d="M234.5 0.5H0.5V49.5H234.5V0.5Z" stroke="#A4A4A4" stroke-linejoin="round"/>
<path d="M47.61 29.334C47.6567 29.334 47.6963 29.3503 47.729 29.383L48.009 29.684C47.8037 29.9033 47.5797 30.1017 47.337 30.279C47.099 30.4517 46.8353 30.601 46.546 30.727C46.2613 30.8483 45.9463 30.9417 45.601 31.007C45.2603 31.077 44.8847 31.112 44.474 31.112C43.788 31.112 43.158 30.993 42.584 30.755C42.0147 30.5123 41.5247 30.1717 41.114 29.733C40.7033 29.2897 40.3837 28.7553 40.155 28.13C39.931 27.5047 39.819 26.8093 39.819 26.044C39.819 25.2927 39.9357 24.6067 40.169 23.986C40.4023 23.3653 40.729 22.8333 41.149 22.39C41.569 21.942 42.073 21.5967 42.661 21.354C43.249 21.1067 43.8977 20.983 44.607 20.983C45.2837 20.983 45.8833 21.088 46.406 21.298C46.9287 21.508 47.4047 21.8043 47.834 22.187L47.617 22.502C47.5797 22.558 47.5213 22.586 47.442 22.586C47.386 22.586 47.295 22.5347 47.169 22.432C47.043 22.3293 46.868 22.2173 46.644 22.096C46.42 21.97 46.14 21.8557 45.804 21.753C45.4727 21.6503 45.0737 21.599 44.607 21.599C44.0097 21.599 43.4613 21.7017 42.962 21.907C42.4673 22.1123 42.0403 22.4063 41.681 22.789C41.3263 23.1717 41.0487 23.6383 40.848 24.189C40.6473 24.7397 40.547 25.358 40.547 26.044C40.547 26.744 40.6473 27.3693 40.848 27.92C41.0533 28.4707 41.3333 28.9373 41.688 29.32C42.0427 29.698 42.4603 29.9897 42.941 30.195C43.4263 30.3957 43.949 30.496 44.509 30.496C44.8637 30.496 45.1787 30.4727 45.454 30.426C45.734 30.3793 45.9907 30.3093 46.224 30.216C46.4573 30.1227 46.6743 30.0083 46.875 29.873C47.0757 29.7377 47.274 29.579 47.47 29.397C47.4933 29.3783 47.5167 29.3643 47.54 29.355C47.5633 29.341 47.5867 29.334 47.61 29.334ZM55.3349 30.391V31H49.9239V21.095H50.6449V30.391H55.3349ZM62.956 30.405L62.942 31H57.006V21.095H62.942V21.69H57.727V25.694H62.067V26.275H57.727V30.405H62.956ZM70.4681 27.402L68.4521 22.397C68.3821 22.2337 68.3144 22.0377 68.2491 21.809C68.2211 21.921 68.1907 22.0283 68.1581 22.131C68.1254 22.229 68.0904 22.32 68.0531 22.404L66.0371 27.402H70.4681ZM72.6591 31H72.1061C72.0407 31 71.9871 30.9837 71.9451 30.951C71.9031 30.9137 71.8704 30.867 71.8471 30.811L70.6851 27.934H65.8201L64.6581 30.811C64.6394 30.8623 64.6067 30.9067 64.5601 30.944C64.5134 30.9813 64.4574 31 64.3921 31H63.8461L67.8991 21.095H68.6061L72.6591 31ZM76.7369 25.988C77.1756 25.988 77.5676 25.9367 77.9129 25.834C78.2629 25.7267 78.5569 25.575 78.7949 25.379C79.0376 25.183 79.2219 24.9473 79.3479 24.672C79.4739 24.3967 79.5369 24.0863 79.5369 23.741C79.5369 23.0363 79.3059 22.5137 78.8439 22.173C78.3866 21.8323 77.7169 21.662 76.8349 21.662H75.0219V25.988H76.7369ZM81.1329 31H80.5169C80.4376 31 80.3699 30.9883 80.3139 30.965C80.2626 30.937 80.2136 30.888 80.1669 30.818L76.9889 26.8C76.9516 26.7487 76.9119 26.7043 76.8699 26.667C76.8326 26.6297 76.7882 26.6017 76.7369 26.583C76.6902 26.5597 76.6319 26.5433 76.5619 26.534C76.4966 26.5247 76.4149 26.52 76.3169 26.52H75.0219V31H74.3009V21.095H76.8349C77.9736 21.095 78.8252 21.3167 79.3899 21.76C79.9592 22.1987 80.2439 22.845 80.2439 23.699C80.2439 24.077 80.1786 24.4223 80.0479 24.735C79.9172 25.0477 79.7282 25.323 79.4809 25.561C79.2382 25.7943 78.9419 25.9857 78.5919 26.135C78.2466 26.2843 77.8569 26.3847 77.4229 26.436C77.5349 26.506 77.6352 26.5993 77.7239 26.716L81.1329 31ZM91.4146 22.299C91.3726 22.3783 91.3119 22.418 91.2326 22.418C91.1719 22.418 91.0926 22.376 90.9946 22.292C90.9012 22.2033 90.7729 22.1077 90.6096 22.005C90.4462 21.8977 90.2409 21.7997 89.9936 21.711C89.7509 21.6223 89.4499 21.578 89.0906 21.578C88.7312 21.578 88.4139 21.6293 88.1386 21.732C87.8679 21.8347 87.6392 21.9747 87.4526 22.152C87.2706 22.3293 87.1306 22.5347 87.0326 22.768C86.9392 23.0013 86.8926 23.2463 86.8926 23.503C86.8926 23.839 86.9626 24.1167 87.1026 24.336C87.2472 24.5553 87.4362 24.742 87.6696 24.896C87.9029 25.05 88.1666 25.1807 88.4606 25.288C88.7592 25.3907 89.0649 25.4933 89.3776 25.596C89.6902 25.6987 89.9936 25.813 90.2876 25.939C90.5862 26.0603 90.8522 26.2143 91.0856 26.401C91.3189 26.5877 91.5056 26.8187 91.6456 27.094C91.7902 27.3647 91.8626 27.703 91.8626 28.109C91.8626 28.5243 91.7902 28.9163 91.6456 29.285C91.5056 29.649 91.3002 29.9663 91.0296 30.237C90.7589 30.5077 90.4276 30.7223 90.0356 30.881C89.6436 31.035 89.1956 31.112 88.6916 31.112C88.0382 31.112 87.4759 30.9977 87.0046 30.769C86.5332 30.5357 86.1202 30.2183 85.7656 29.817L85.9616 29.509C86.0176 29.439 86.0829 29.404 86.1576 29.404C86.1996 29.404 86.2532 29.432 86.3186 29.488C86.3839 29.544 86.4632 29.614 86.5566 29.698C86.6499 29.7773 86.7619 29.866 86.8926 29.964C87.0232 30.0573 87.1749 30.146 87.3476 30.23C87.5202 30.3093 87.7186 30.377 87.9426 30.433C88.1666 30.489 88.4209 30.517 88.7056 30.517C89.0976 30.517 89.4476 30.4587 89.7556 30.342C90.0636 30.2207 90.3226 30.0573 90.5326 29.852C90.7472 29.6467 90.9106 29.404 91.0226 29.124C91.1346 28.8393 91.1906 28.536 91.1906 28.214C91.1906 27.864 91.1182 27.577 90.9736 27.353C90.8336 27.1243 90.6469 26.9353 90.4136 26.786C90.1802 26.632 89.9142 26.5037 89.6156 26.401C89.3216 26.2983 89.0182 26.198 88.7056 26.1C88.3929 26.002 88.0872 25.8923 87.7886 25.771C87.4946 25.6497 87.2309 25.4957 86.9976 25.309C86.7642 25.1177 86.5752 24.882 86.4306 24.602C86.2906 24.3173 86.2206 23.9627 86.2206 23.538C86.2206 23.2067 86.2836 22.887 86.4096 22.579C86.5356 22.271 86.7199 22.0003 86.9626 21.767C87.2052 21.529 87.5039 21.34 87.8586 21.2C88.2179 21.0553 88.6262 20.983 89.0836 20.983C89.5969 20.983 90.0566 21.0647 90.4626 21.228C90.8732 21.3913 91.2466 21.641 91.5826 21.977L91.4146 22.299ZM101.742 21.095V31H101.021V26.254H94.8188V31H94.0978V21.095H94.8188V25.715H101.021V21.095H101.742ZM113.465 26.044C113.465 26.8093 113.351 27.5047 113.122 28.13C112.893 28.7507 112.571 29.2827 112.156 29.726C111.741 30.1647 111.241 30.5053 110.658 30.748C110.079 30.986 109.44 31.105 108.74 31.105C108.04 31.105 107.401 30.986 106.822 30.748C106.243 30.5053 105.746 30.1647 105.331 29.726C104.916 29.2827 104.594 28.7507 104.365 28.13C104.136 27.5047 104.022 26.8093 104.022 26.044C104.022 25.2833 104.136 24.5927 104.365 23.972C104.594 23.3467 104.916 22.8147 105.331 22.376C105.746 21.9327 106.243 21.5897 106.822 21.347C107.401 21.1043 108.04 20.983 108.74 20.983C109.44 20.983 110.079 21.1043 110.658 21.347C111.241 21.585 111.741 21.9257 112.156 22.369C112.571 22.8123 112.893 23.3467 113.122 23.972C113.351 24.5927 113.465 25.2833 113.465 26.044ZM112.723 26.044C112.723 25.3533 112.627 24.7327 112.436 24.182C112.245 23.6313 111.974 23.1647 111.624 22.782C111.274 22.3993 110.854 22.1077 110.364 21.907C109.874 21.7017 109.333 21.599 108.74 21.599C108.152 21.599 107.613 21.7017 107.123 21.907C106.633 22.1077 106.211 22.3993 105.856 22.782C105.506 23.1647 105.233 23.6313 105.037 24.182C104.846 24.7327 104.75 25.3533 104.75 26.044C104.75 26.7393 104.846 27.3623 105.037 27.913C105.233 28.459 105.506 28.9233 105.856 29.306C106.211 29.6887 106.633 29.9803 107.123 30.181C107.613 30.3817 108.152 30.482 108.74 30.482C109.333 30.482 109.874 30.3817 110.364 30.181C110.854 29.9803 111.274 29.6887 111.624 29.306C111.974 28.9233 112.245 28.459 112.436 27.913C112.627 27.3623 112.723 26.7393 112.723 26.044ZM118.302 26.436C118.736 26.436 119.126 26.3753 119.471 26.254C119.817 26.1327 120.108 25.9647 120.346 25.75C120.589 25.5353 120.773 25.2833 120.899 24.994C121.03 24.7 121.095 24.3803 121.095 24.035C121.095 23.2743 120.862 22.6887 120.395 22.278C119.929 21.8673 119.231 21.662 118.302 21.662H116.461V26.436H118.302ZM118.302 21.095C119.464 21.095 120.339 21.3493 120.927 21.858C121.52 22.3667 121.816 23.0923 121.816 24.035C121.816 24.469 121.735 24.868 121.571 25.232C121.408 25.596 121.175 25.911 120.871 26.177C120.568 26.4383 120.199 26.6437 119.765 26.793C119.331 26.9377 118.844 27.01 118.302 27.01H116.461V31H115.74V21.095H118.302ZM126.396 26.436C126.83 26.436 127.22 26.3753 127.565 26.254C127.91 26.1327 128.202 25.9647 128.44 25.75C128.683 25.5353 128.867 25.2833 128.993 24.994C129.124 24.7 129.189 24.3803 129.189 24.035C129.189 23.2743 128.956 22.6887 128.489 22.278C128.022 21.8673 127.325 21.662 126.396 21.662H124.555V26.436H126.396ZM126.396 21.095C127.558 21.095 128.433 21.3493 129.021 21.858C129.614 22.3667 129.91 23.0923 129.91 24.035C129.91 24.469 129.828 24.868 129.665 25.232C129.502 25.596 129.268 25.911 128.965 26.177C128.662 26.4383 128.293 26.6437 127.859 26.793C127.425 26.9377 126.937 27.01 126.396 27.01H124.555V31H123.834V21.095H126.396ZM132.649 31H131.928V21.095H132.649V31ZM143.222 21.095V31H142.886C142.826 31 142.774 30.9907 142.732 30.972C142.695 30.9487 142.658 30.9113 142.62 30.86L136.187 22.264C136.201 22.404 136.208 22.537 136.208 22.663V31H135.578V21.095H135.935C136.001 21.095 136.05 21.1043 136.082 21.123C136.12 21.137 136.159 21.172 136.201 21.228L142.62 29.803C142.606 29.663 142.599 29.53 142.599 29.404V21.095H143.222ZM154.057 26.506V30.027C153.562 30.377 153.035 30.6453 152.475 30.832C151.915 31.0187 151.285 31.112 150.585 31.112C149.801 31.112 149.096 30.993 148.471 30.755C147.845 30.5123 147.311 30.1717 146.868 29.733C146.429 29.2897 146.091 28.7553 145.853 28.13C145.619 27.5047 145.503 26.8093 145.503 26.044C145.503 25.2787 145.617 24.5857 145.846 23.965C146.079 23.3397 146.41 22.8077 146.84 22.369C147.274 21.9257 147.796 21.585 148.408 21.347C149.019 21.1043 149.707 20.983 150.473 20.983C150.851 20.983 151.198 21.0087 151.516 21.06C151.838 21.1113 152.136 21.1883 152.412 21.291C152.687 21.389 152.944 21.5127 153.182 21.662C153.42 21.8067 153.648 21.9747 153.868 22.166L153.672 22.474C153.606 22.586 153.508 22.6117 153.378 22.551C153.308 22.523 153.207 22.4577 153.077 22.355C152.946 22.2523 152.766 22.145 152.538 22.033C152.309 21.921 152.024 21.8207 151.684 21.732C151.348 21.6433 150.937 21.599 150.452 21.599C149.808 21.599 149.224 21.7017 148.702 21.907C148.184 22.1123 147.74 22.4063 147.372 22.789C147.008 23.1717 146.725 23.6383 146.525 24.189C146.329 24.7397 146.231 25.358 146.231 26.044C146.231 26.7393 146.329 27.3647 146.525 27.92C146.725 28.4753 147.012 28.9467 147.386 29.334C147.764 29.7213 148.221 30.0177 148.758 30.223C149.294 30.4283 149.899 30.531 150.571 30.531C150.865 30.531 151.135 30.5123 151.383 30.475C151.635 30.4377 151.873 30.3863 152.097 30.321C152.325 30.251 152.545 30.167 152.755 30.069C152.969 29.9663 153.186 29.852 153.406 29.726V27.059H151.509C151.457 27.059 151.413 27.0427 151.376 27.01C151.343 26.9773 151.327 26.94 151.327 26.898V26.506H154.057ZM167.389 29.334C167.436 29.334 167.476 29.3503 167.508 29.383L167.788 29.684C167.583 29.9033 167.359 30.1017 167.116 30.279C166.878 30.4517 166.615 30.601 166.325 30.727C166.041 30.8483 165.726 30.9417 165.38 31.007C165.04 31.077 164.664 31.112 164.253 31.112C163.567 31.112 162.937 30.993 162.363 30.755C161.794 30.5123 161.304 30.1717 160.893 29.733C160.483 29.2897 160.163 28.7553 159.934 28.13C159.71 27.5047 159.598 26.8093 159.598 26.044C159.598 25.2927 159.715 24.6067 159.948 23.986C160.182 23.3653 160.508 22.8333 160.928 22.39C161.348 21.942 161.852 21.5967 162.44 21.354C163.028 21.1067 163.677 20.983 164.386 20.983C165.063 20.983 165.663 21.088 166.185 21.298C166.708 21.508 167.184 21.8043 167.613 22.187L167.396 22.502C167.359 22.558 167.301 22.586 167.221 22.586C167.165 22.586 167.074 22.5347 166.948 22.432C166.822 22.3293 166.647 22.2173 166.423 22.096C166.199 21.97 165.919 21.8557 165.583 21.753C165.252 21.6503 164.853 21.599 164.386 21.599C163.789 21.599 163.241 21.7017 162.741 21.907C162.247 22.1123 161.82 22.4063 161.46 22.789C161.106 23.1717 160.828 23.6383 160.627 24.189C160.427 24.7397 160.326 25.358 160.326 26.044C160.326 26.744 160.427 27.3693 160.627 27.92C160.833 28.4707 161.113 28.9373 161.467 29.32C161.822 29.698 162.24 29.9897 162.72 30.195C163.206 30.3957 163.728 30.496 164.288 30.496C164.643 30.496 164.958 30.4727 165.233 30.426C165.513 30.3793 165.77 30.3093 166.003 30.216C166.237 30.1227 166.454 30.0083 166.654 29.873C166.855 29.7377 167.053 29.579 167.249 29.397C167.273 29.3783 167.296 29.3643 167.319 29.355C167.343 29.341 167.366 29.334 167.389 29.334ZM175.044 27.402L173.028 22.397C172.958 22.2337 172.891 22.0377 172.825 21.809C172.797 21.921 172.767 22.0283 172.734 22.131C172.702 22.229 172.667 22.32 172.629 22.404L170.613 27.402H175.044ZM177.235 31H176.682C176.617 31 176.563 30.9837 176.521 30.951C176.479 30.9137 176.447 30.867 176.423 30.811L175.261 27.934H170.396L169.234 30.811C169.216 30.8623 169.183 30.9067 169.136 30.944C169.09 30.9813 169.034 31 168.968 31H168.422L172.475 21.095H173.182L177.235 31ZM181.313 25.988C181.752 25.988 182.144 25.9367 182.489 25.834C182.839 25.7267 183.133 25.575 183.371 25.379C183.614 25.183 183.798 24.9473 183.924 24.672C184.05 24.3967 184.113 24.0863 184.113 23.741C184.113 23.0363 183.882 22.5137 183.42 22.173C182.963 21.8323 182.293 21.662 181.411 21.662H179.598V25.988H181.313ZM185.709 31H185.093C185.014 31 184.946 30.9883 184.89 30.965C184.839 30.937 184.79 30.888 184.743 30.818L181.565 26.8C181.528 26.7487 181.488 26.7043 181.446 26.667C181.409 26.6297 181.364 26.6017 181.313 26.583C181.266 26.5597 181.208 26.5433 181.138 26.534C181.073 26.5247 180.991 26.52 180.893 26.52H179.598V31H178.877V21.095H181.411C182.55 21.095 183.401 21.3167 183.966 21.76C184.535 22.1987 184.82 22.845 184.82 23.699C184.82 24.077 184.755 24.4223 184.624 24.735C184.493 25.0477 184.304 25.323 184.057 25.561C183.814 25.7943 183.518 25.9857 183.168 26.135C182.823 26.2843 182.433 26.3847 181.999 26.436C182.111 26.506 182.211 26.5993 182.3 26.716L185.709 31ZM193.411 21.704H189.932V31H189.211V21.704H185.711V21.095H193.411V21.704Z" fill="black"/>
</svg>
